<svg xmlns="http://www.w3.org/2000/svg" viewBox="0 0 24 24" width="128" height="128">
  <defs>
    <linearGradient id="g2" x1="0" x2="1">
      <stop offset="0%" stop-color="#0A1B5C"/>
      <stop offset="100%" stop-color="#0F3B6B"/>
    </linearGradient>
  </defs>
  <path fill="url(#g2)" d="M17.2 14.3c-1.2 1.2-2.7 2-4.3 2.3-1 .2-2.1.1-3.1-.2-.4-.1-.9 0-1.2.3l-2 2c-.7.7-1.8.8-2.5.1-1.5-1.5-2.6-3.8-2.6-6.4 0-3.6 2.8-6 6.2-6 1.6 0 3.1.6 4.3 1.8l1.4 1.4c.4.4.5 1 .3 1.5-.5 1.4-.5 3 .2 4.4.1.3 0 .6-.2.8z"/>
  <circle cx="7.5" cy="7.5" r="0.9" fill="#fff" opacity="0.85"/>
</svg>